<svg width="512.0" height="340" xmlns="http://www.w3.org/2000/svg">
<path stroke-width="19.828889638879513" stroke="gray" d="M 392 135 392 135"/>
<path stroke-width="12.286871414107322" stroke="gray" d="M 420 90 341 20"/>
<path stroke-width="0.5" stroke="gray" d="M 420 90 248 320"/>
<path stroke-width="18.34812689841377" stroke="gray" d="M 420 90 420 90"/>
<path stroke-width="14.201991225109685" stroke="gray" d="M 420 90 280 50"/>
<path stroke-width="4.981775227809652" stroke="gray" d="M 420 90 186 143"/>
<path stroke-width="15.090448869389132" stroke="gray" d="M 420 90 338 94"/>
<path stroke-width="13.122679716503542" stroke="gray" d="M 420 90 406 40"/>
<path stroke-width="13.089773877826529" stroke="gray" d="M 420 90 330 147"/>
<path stroke-width="13.300371245359432" stroke="gray" d="M 420 90 392 135"/>
<path stroke-width="13.570199122510969" stroke="gray" d="M 280 50 282 99"/>
<path stroke-width="15.182585217684778" stroke="gray" d="M 420 90 282 99"/>
<path stroke-width="9.022612217347284" stroke="gray" d="M 280 50 341 20"/>
<path stroke-width="12.550118123523454" stroke="gray" d="M 280 50 420 90"/>
<path stroke-width="15.8209584880189" stroke="gray" d="M 280 50 280 50"/>
<path stroke-width="9.206884913938577" stroke="gray" d="M 280 50 186 143"/>
<path stroke-width="15.24839689503881" stroke="gray" d="M 280 50 338 94"/>
<path stroke-width="7.798515018562267" stroke="gray" d="M 280 50 406 40"/>
<path stroke-width="1.7043536955788052" stroke="gray" d="M 280 50 20 307"/>
<path stroke-width="9.167397907526155" stroke="gray" d="M 280 50 330 147"/>
<path stroke-width="13.484643941950724" stroke="gray" d="M 280 50 392 135"/>
<path stroke-width="1.829395882551468" stroke="gray" d="M 186 143 282 99"/>
<path stroke-width="0.7369220384745191" stroke="gray" d="M 186 143 341 20"/>
<path stroke-width="2.276915288558893" stroke="gray" d="M 280 50 248 320"/>
<path stroke-width="1.079142760715491" stroke="gray" d="M 186 143 248 320"/>
<path stroke-width="2.0531555855551806" stroke="gray" d="M 248 320 338 94"/>
<path stroke-width="1.4082011474856564" stroke="gray" d="M 248 320 420 90"/>
<path stroke-width="1.803071211609855" stroke="gray" d="M 282 99 248 320"/>
<path stroke-width="12.260546743165712" stroke="gray" d="M 282 99 420 90"/>
<path stroke-width="15.320789740128248" stroke="gray" d="M 282 99 280 50"/>
<path stroke-width="14.123017212284845" stroke="gray" d="M 282 99 186 143"/>
<path stroke-width="18.54556193047587" stroke="gray" d="M 282 99 338 94"/>
<path stroke-width="15.827539655754304" stroke="gray" d="M 282 99 406 40"/>
<path stroke-width="1.2502531218359771" stroke="gray" d="M 282 99 20 307"/>
<path stroke-width="16.39352008099899" stroke="gray" d="M 282 99 330 147"/>
<path stroke-width="15.011474856564291" stroke="gray" d="M 282 99 392 135"/>
<path stroke-width="12.629092136348294" stroke="gray" d="M 341 20 282 99"/>
<path stroke-width="6.5349308133648325" stroke="gray" d="M 248 320 186 143"/>
<path stroke-width="15.965744178197772" stroke="gray" d="M 341 20 341 20"/>
<path stroke-width="10.503374957813028" stroke="gray" d="M 341 20 420 90"/>
<path stroke-width="13.708403644954439" stroke="gray" d="M 341 20 280 50"/>
<path stroke-width="7.318089773877826" stroke="gray" d="M 341 20 186 143"/>
<path stroke-width="10.621835977050289" stroke="gray" d="M 341 20 338 94"/>
<path stroke-width="10.832433344583192" stroke="gray" d="M 341 20 406 40"/>
<path stroke-width="11.582686466419169" stroke="gray" d="M 341 20 330 147"/>
<path stroke-width="12.615929800877488" stroke="gray" d="M 341 20 392 135"/>
<path stroke-width="0.5" stroke="gray" d="M 248 320 282 99"/>
<path stroke-width="0.7895713803577455" stroke="gray" d="M 248 320 341 20"/>
<path stroke-width="16.24873439082011" stroke="gray" d="M 248 320 248 320"/>
<path stroke-width="0.5" stroke="gray" d="M 341 20 248 320"/>
<path stroke-width="0.7764090448869388" stroke="gray" d="M 186 143 420 90"/>
<path stroke-width="0.6382045224434695" stroke="gray" d="M 186 143 280 50"/>
<path stroke-width="19.993418832264595" stroke="gray" d="M 186 143 186 143"/>
<path stroke-width="18.617954775565305" stroke="gray" d="M 20 307 20 307"/>
<path stroke-width="0.565811677354033" stroke="gray" d="M 20 307 330 147"/>
<path stroke-width="2.066317921025987" stroke="gray" d="M 20 307 392 135"/>
<path stroke-width="14.287546405669929" stroke="gray" d="M 330 147 282 99"/>
<path stroke-width="11.299696253796828" stroke="gray" d="M 330 147 341 20"/>
<path stroke-width="1.5003374957813027" stroke="gray" d="M 330 147 248 320"/>
<path stroke-width="14.893013837327034" stroke="gray" d="M 330 147 420 90"/>
<path stroke-width="14.346776915288558" stroke="gray" d="M 330 147 280 50"/>
<path stroke-width="6.3835639554505565" stroke="gray" d="M 330 147 186 143"/>
<path stroke-width="12.444819439757001" stroke="gray" d="M 330 147 338 94"/>
<path stroke-width="0.5329058386770166" stroke="gray" d="M 20 307 338 94"/>
<path stroke-width="12.352683091461358" stroke="gray" d="M 330 147 406 40"/>
<path stroke-width="16.847620654741817" stroke="gray" d="M 330 147 330 147"/>
<path stroke-width="16.307964900438744" stroke="gray" d="M 330 147 392 135"/>
<path stroke-width="15.38660141748228" stroke="gray" d="M 392 135 282 99"/>
<path stroke-width="12.286871414107322" stroke="gray" d="M 392 135 341 20"/>
<path stroke-width="12.043368207897402" stroke="gray" d="M 392 135 420 90"/>
<path stroke-width="14.221734728315894" stroke="gray" d="M 392 135 280 50"/>
<path stroke-width="1.2699966250421868" stroke="gray" d="M 392 135 186 143"/>
<path stroke-width="13.13584205197435" stroke="gray" d="M 392 135 338 94"/>
<path stroke-width="11.589267634154572" stroke="gray" d="M 392 135 406 40"/>
<path stroke-width="12.286871414107322" stroke="gray" d="M 392 135 330 147"/>
<path stroke-width="1.1844414444819438" stroke="gray" d="M 330 147 20 307"/>
<path stroke-width="1.1778602767465407" stroke="gray" d="M 20 307 186 143"/>
<path stroke-width="14.162504218697265" stroke="gray" d="M 406 40 392 135"/>
<path stroke-width="14.498143773202834" stroke="gray" d="M 406 40 330 147"/>
<path stroke-width="1.3423894701316232" stroke="gray" d="M 186 143 338 94"/>
<path stroke-width="0.7171785352683091" stroke="gray" d="M 186 143 406 40"/>
<path stroke-width="0.8158960512993587" stroke="gray" d="M 186 143 20 307"/>
<path stroke-width="0.6382045224434695" stroke="gray" d="M 186 143 330 147"/>
<path stroke-width="0.8553830577117786" stroke="gray" d="M 186 143 392 135"/>
<path stroke-width="18.124367195410056" stroke="gray" d="M 338 94 282 99"/>
<path stroke-width="14.537630779615254" stroke="gray" d="M 338 94 341 20"/>
<path stroke-width="2.066317921025987" stroke="gray" d="M 338 94 248 320"/>
<path stroke-width="17.446506918663516" stroke="gray" d="M 338 94 420 90"/>
<path stroke-width="15.412926088423893" stroke="gray" d="M 338 94 280 50"/>
<path stroke-width="13.71498481268984" stroke="gray" d="M 338 94 186 143"/>
<path stroke-width="20.0" stroke="gray" d="M 338 94 338 94"/>
<path stroke-width="18.242828214647314" stroke="gray" d="M 338 94 406 40"/>
<path stroke-width="1.5003374957813027" stroke="gray" d="M 338 94 20 307"/>
<path stroke-width="17.229328383395206" stroke="gray" d="M 338 94 330 147"/>
<path stroke-width="18.183597705028685" stroke="gray" d="M 338 94 392 135"/>
<path stroke-width="15.853864326695914" stroke="gray" d="M 406 40 282 99"/>
<path stroke-width="13.747890651366857" stroke="gray" d="M 406 40 341 20"/>
<path stroke-width="14.820620992237599" stroke="gray" d="M 406 40 420 90"/>
<path stroke-width="13.109517381032738" stroke="gray" d="M 406 40 280 50"/>
<path stroke-width="1.631960850489369" stroke="gray" d="M 406 40 186 143"/>
<path stroke-width="15.011474856564291" stroke="gray" d="M 406 40 338 94"/>
<path stroke-width="18.04539318258522" stroke="gray" d="M 406 40 406 40"/>
<path stroke-width="13.247721903476204" stroke="gray" d="M 282 99 341 20"/>
<path stroke-width="18.74957813027337" stroke="gray" d="M 282 99 282 99"/>
<circle cx="392" cy="135" r="7.0" style="fill:red;stroke:black;stroke-width:1.0"/>
<circle cx="330" cy="147" r="7.0" style="fill:blue;stroke:black;stroke-width:1.0"/>
<circle cx="20" cy="307" r="7.0" style="fill:orange;stroke:black;stroke-width:1.0"/>
<circle cx="406" cy="40" r="7.0" style="fill:blue;stroke:black;stroke-width:1.0"/>
<circle cx="338" cy="94" r="7.0" style="fill:blue;stroke:black;stroke-width:1.0"/>
<circle cx="186" cy="143" r="7.0" style="fill:green;stroke:black;stroke-width:1.0"/>
<circle cx="280" cy="50" r="7.0" style="fill:red;stroke:black;stroke-width:1.0"/>
<circle cx="420" cy="90" r="7.0" style="fill:blue;stroke:black;stroke-width:1.0"/>
<circle cx="248" cy="320" r="7.0" style="fill:green;stroke:black;stroke-width:1.0"/>
<circle cx="341" cy="20" r="7.0" style="fill:red;stroke:black;stroke-width:1.0"/>
<circle cx="282" cy="99" r="7.0" style="fill:blue;stroke:black;stroke-width:1.0"/>
<text text-anchor="start" x="402" y="135" font-size="12">arabic</text><text text-anchor="start" x="340" y="147" font-size="12">finnish</text><text text-anchor="start" x="30" y="307" font-size="12">georgian</text><text text-anchor="start" x="416" y="40" font-size="12">german</text><text text-anchor="start" x="348" y="94" font-size="12">hungarian</text><text text-anchor="start" x="196" y="143" font-size="12">japanese</text><text text-anchor="start" x="290" y="50" font-size="12">maltese</text><text text-anchor="start" x="430" y="90" font-size="12">navajo</text><text text-anchor="start" x="258" y="320" font-size="12">russian</text><text text-anchor="start" x="351" y="20" font-size="12">spanish</text><text text-anchor="start" x="292" y="99" font-size="12">turkish</text></svg>
